<svg version="1.1" xmlns="http://www.w3.org/2000/svg" viewBox="0 0 4280 1720" width="4280" height="1720">
  <!-- svg-source:excalidraw -->
  
  <defs>
    <style class="style-fonts">
      @font-face {
        font-family: "Virgil";
        src: url("https://excalidraw.com/Virgil.woff2");
      }
      @font-face {
        font-family: "Cascadia";
        src: url("https://excalidraw.com/Cascadia.woff2");
      }
      @font-face {
        font-family: "Assistant";
        src: url("https://excalidraw.com/Assistant-Regular.woff2");
      }
    </style>
    <clipPath id="AAumdBoY2H-OEw5_vTVNg">
            <rect transform="translate(0 0) rotate(0 2140 860)" width="4280" height="1720">
          </rect>
        </clipPath>
  </defs>
  <rect x="0" y="0" width="4280" height="1720" fill="#ffffff"></rect><g clip-path="url(#AAumdBoY2H-OEw5_vTVNg)"><g transform="translate(1300 100) rotate(0 213.24819946289062 39.99999999999999)"><text x="213.24819946289062" y="64.00135869565216" font-family="Helvetica, Segoe UI Emoji" font-size="69.56521739130434px" fill="#1e1e1e" text-anchor="middle" style="white-space: pre;" direction="ltr" dominant-baseline="alphabetic">Training / RR </text></g></g><g clip-path="url(#AAumdBoY2H-OEw5_vTVNg)"><g stroke-linecap="round"><g transform="translate(1060 448.2647582310799) rotate(0 109.5 1.1345450975535698)"><path d="M0 0 C57.52 0.6, 115.05 1.19, 219 2.27 M0 0 C69.2 0.72, 138.39 1.43, 219 2.27" stroke="#1e1e1e" stroke-width="4" fill="none"></path></g><g transform="translate(1060 448.2647582310799) rotate(0 109.5 1.1345450975535698)"><path d="M195.42 10.58 C201.61 8.39, 207.81 6.21, 219 2.27 M195.42 10.58 C202.87 7.95, 210.32 5.33, 219 2.27" stroke="#1e1e1e" stroke-width="4" fill="none"></path></g><g transform="translate(1060 448.2647582310799) rotate(0 109.5 1.1345450975535698)"><path d="M195.6 -6.52 C201.74 -4.21, 207.89 -1.9, 219 2.27 M195.6 -6.52 C202.99 -3.75, 210.39 -0.97, 219 2.27" stroke="#1e1e1e" stroke-width="4" fill="none"></path></g></g><mask></mask></g><g clip-path="url(#AAumdBoY2H-OEw5_vTVNg)"><g stroke-linecap="round"><g transform="translate(1081 760) rotate(0 99 0)"><path d="M0 0 C64.99 0, 129.97 0, 198 0 M0 0 C68.33 0, 136.65 0, 198 0" stroke="#1e1e1e" stroke-width="4" fill="none"></path></g><g transform="translate(1081 760) rotate(0 99 0)"><path d="M174.51 8.55 C182.22 5.74, 189.93 2.94, 198 0 M174.51 8.55 C182.61 5.6, 190.72 2.65, 198 0" stroke="#1e1e1e" stroke-width="4" fill="none"></path></g><g transform="translate(1081 760) rotate(0 99 0)"><path d="M174.51 -8.55 C182.22 -5.74, 189.93 -2.94, 198 0 M174.51 -8.55 C182.61 -5.6, 190.72 -2.65, 198 0" stroke="#1e1e1e" stroke-width="4" fill="none"></path></g></g><mask></mask></g><g clip-path="url(#AAumdBoY2H-OEw5_vTVNg)"><g transform="translate(1080 880) rotate(0 110 26.154062083557733)"><text x="109.9999999999998" y="41.847387718953385" font-family="Helvetica, Segoe UI Emoji" font-size="45.485325362709126px" fill="#1e1e1e" text-anchor="middle" style="white-space: pre;" direction="ltr" dominant-baseline="alphabetic">No change</text></g></g><g clip-path="url(#AAumdBoY2H-OEw5_vTVNg)"><g stroke-linecap="round" transform="translate(2060 520) rotate(0 110 80.00000000000003)"><path d="M0 0 L220 0 L220 160 L0 160" stroke="none" stroke-width="0" fill="#ffffff"></path><path d="M0 0 C83.3 0, 166.6 0, 220 0 M0 0 C66.28 0, 132.56 0, 220 0 M220 0 C220 32.25, 220 64.5, 220 160 M220 0 C220 35.13, 220 70.25, 220 160 M220 160 C168.26 160, 116.52 160, 0 160 M220 160 C154.1 160, 88.2 160, 0 160 M0 160 C0 102.81, 0 45.62, 0 0 M0 160 C0 120.47, 0 80.93, 0 0" stroke="#1e1e1e" stroke-width="4" fill="none"></path></g></g><g clip-path="url(#AAumdBoY2H-OEw5_vTVNg)"><g transform="translate(2100.002639770508 571.5553961993546) rotate(0 69.99736022949219 29.556113302258893)"><text x="69.99736022949219" y="47.290785227680175" font-family="Helvetica, Segoe UI Emoji" font-size="51.401936177841534px" fill="#1e1e1e" text-anchor="middle" style="white-space: pre;" direction="ltr" dominant-baseline="alphabetic">Model</text></g></g><g clip-path="url(#AAumdBoY2H-OEw5_vTVNg)"><g stroke-linecap="round"><g transform="translate(1540 380) rotate(0 30 120)"><path d="M0 0 C20.22 0, 40.43 0, 60 0 M0 0 C19.71 0, 39.42 0, 60 0 M60 0 C60 89.61, 60 179.23, 60 240 M60 0 C60 60.65, 60 121.3, 60 240" stroke="#1e1e1e" stroke-width="4" fill="none"></path></g><g transform="translate(1540 380) rotate(0 30 120)"><path d="M51.45 216.51 C54.33 224.42, 57.21 232.34, 60 240 M51.45 216.51 C54.26 224.22, 57.07 231.94, 60 240" stroke="#1e1e1e" stroke-width="4" fill="none"></path></g><g transform="translate(1540 380) rotate(0 30 120)"><path d="M68.55 216.51 C65.67 224.42, 62.79 232.34, 60 240 M68.55 216.51 C65.74 224.22, 62.93 231.94, 60 240" stroke="#1e1e1e" stroke-width="4" fill="none"></path></g></g><mask></mask></g><g clip-path="url(#AAumdBoY2H-OEw5_vTVNg)"><g stroke-linecap="round" transform="translate(1560 620) rotate(0 40 40)"><path d="M80 40 C80 41.9, 79.86 43.81, 79.59 45.69 C79.32 47.57, 78.91 49.45, 78.38 51.27 C77.85 53.09, 77.17 54.89, 76.39 56.62 C75.6 58.34, 74.68 60.03, 73.65 61.63 C72.62 63.22, 71.47 64.76, 70.23 66.19 C68.99 67.63, 67.63 68.99, 66.19 70.23 C64.76 71.47, 63.22 72.62, 61.63 73.65 C60.03 74.68, 58.34 75.6, 56.62 76.39 C54.89 77.17, 53.09 77.85, 51.27 78.38 C49.45 78.91, 47.57 79.32, 45.69 79.59 C43.81 79.86, 41.9 80, 40 80 C38.1 80, 36.19 79.86, 34.31 79.59 C32.43 79.32, 30.55 78.91, 28.73 78.38 C26.91 77.85, 25.11 77.17, 23.38 76.39 C21.66 75.6, 19.97 74.68, 18.37 73.65 C16.78 72.62, 15.24 71.47, 13.81 70.23 C12.37 68.99, 11.01 67.63, 9.77 66.19 C8.53 64.76, 7.38 63.22, 6.35 61.63 C5.32 60.03, 4.4 58.34, 3.61 56.62 C2.83 54.89, 2.15 53.09, 1.62 51.27 C1.09 49.45, 0.68 47.57, 0.41 45.69 C0.14 43.81, 0 41.9, 0 40 C0 38.1, 0.14 36.19, 0.41 34.31 C0.68 32.43, 1.09 30.55, 1.62 28.73 C2.15 26.91, 2.83 25.11, 3.61 23.38 C4.4 21.66, 5.32 19.97, 6.35 18.37 C7.38 16.78, 8.53 15.24, 9.77 13.81 C11.01 12.37, 12.37 11.01, 13.81 9.77 C15.24 8.53, 16.78 7.38, 18.37 6.35 C19.97 5.32, 21.66 4.4, 23.38 3.61 C25.11 2.83, 26.91 2.15, 28.73 1.62 C30.55 1.09, 32.43 0.68, 34.31 0.41 C36.19 0.14, 38.1 0, 40 0 C41.9 0, 43.81 0.14, 45.69 0.41 C47.57 0.68, 49.45 1.09, 51.27 1.62 C53.09 2.15, 54.89 2.83, 56.62 3.61 C58.34 4.4, 60.03 5.32, 61.63 6.35 C63.22 7.38, 64.76 8.53, 66.19 9.77 C67.63 11.01, 68.99 12.37, 70.23 13.81 C71.47 15.24, 72.62 16.78, 73.65 18.37 C74.68 19.97, 75.6 21.66, 76.39 23.38 C77.17 25.11, 77.85 26.91, 78.38 28.73 C78.91 30.55, 79.32 32.43, 79.59 34.31 C79.86 36.19, 79.93 39.05, 80 40 C80.07 40.95, 80.07 39.05, 80 40" stroke="none" stroke-width="0" fill="#ffffff"></path><path d="M80 40 C80 41.9, 79.86 43.81, 79.59 45.69 C79.32 47.57, 78.91 49.45, 78.38 51.27 C77.85 53.09, 77.17 54.89, 76.39 56.62 C75.6 58.34, 74.68 60.03, 73.65 61.63 C72.62 63.22, 71.47 64.76, 70.23 66.19 C68.99 67.63, 67.63 68.99, 66.19 70.23 C64.76 71.47, 63.22 72.62, 61.63 73.65 C60.03 74.68, 58.34 75.6, 56.62 76.39 C54.89 77.17, 53.09 77.85, 51.27 78.38 C49.45 78.91, 47.57 79.32, 45.69 79.59 C43.81 79.86, 41.9 80, 40 80 C38.1 80, 36.19 79.86, 34.31 79.59 C32.43 79.32, 30.55 78.91, 28.73 78.38 C26.91 77.85, 25.11 77.17, 23.38 76.39 C21.66 75.6, 19.97 74.68, 18.37 73.65 C16.78 72.62, 15.24 71.47, 13.81 70.23 C12.37 68.99, 11.01 67.63, 9.77 66.19 C8.53 64.76, 7.38 63.22, 6.35 61.63 C5.32 60.03, 4.4 58.34, 3.61 56.62 C2.83 54.89, 2.15 53.09, 1.62 51.27 C1.09 49.45, 0.68 47.57, 0.41 45.69 C0.14 43.81, 0 41.9, 0 40 C0 38.1, 0.14 36.19, 0.41 34.31 C0.68 32.43, 1.09 30.55, 1.62 28.73 C2.15 26.91, 2.83 25.11, 3.61 23.38 C4.4 21.66, 5.32 19.97, 6.35 18.37 C7.38 16.78, 8.53 15.24, 9.77 13.81 C11.01 12.37, 12.37 11.01, 13.81 9.77 C15.24 8.53, 16.78 7.38, 18.37 6.35 C19.97 5.32, 21.66 4.4, 23.38 3.61 C25.11 2.83, 26.91 2.15, 28.73 1.62 C30.55 1.09, 32.43 0.68, 34.31 0.41 C36.19 0.14, 38.1 0, 40 0 C41.9 0, 43.81 0.14, 45.69 0.41 C47.57 0.68, 49.45 1.09, 51.27 1.62 C53.09 2.15, 54.89 2.83, 56.62 3.61 C58.34 4.4, 60.03 5.32, 61.63 6.35 C63.22 7.38, 64.76 8.53, 66.19 9.77 C67.63 11.01, 68.99 12.37, 70.23 13.81 C71.47 15.24, 72.62 16.78, 73.65 18.37 C74.68 19.97, 75.6 21.66, 76.39 23.38 C77.17 25.11, 77.85 26.91, 78.38 28.73 C78.91 30.55, 79.32 32.43, 79.59 34.31 C79.86 36.19, 79.93 39.05, 80 40 C80.07 40.95, 80.07 39.05, 80 40" stroke="#1e1e1e" stroke-width="4" fill="none"></path></g></g><g clip-path="url(#AAumdBoY2H-OEw5_vTVNg)"><g stroke-linecap="round"><g transform="translate(1481 760) rotate(0 59.5 -29.5)"><path d="M0 0 C46.05 0, 92.09 0, 119 0 M0 0 C28.5 0, 57 0, 119 0 M119 0 C119 -23.44, 119 -46.88, 119 -59 M119 0 C119 -13.09, 119 -26.18, 119 -59" stroke="#1e1e1e" stroke-width="4" fill="none"></path></g><g transform="translate(1481 760) rotate(0 59.5 -29.5)"><path d="M127.55 -35.51 C124.24 -44.6, 120.93 -53.69, 119 -59 M127.55 -35.51 C125.5 -41.13, 123.45 -46.76, 119 -59" stroke="#1e1e1e" stroke-width="4" fill="none"></path></g><g transform="translate(1481 760) rotate(0 59.5 -29.5)"><path d="M110.45 -35.51 C113.76 -44.6, 117.07 -53.69, 119 -59 M110.45 -35.51 C112.5 -41.13, 114.55 -46.76, 119 -59" stroke="#1e1e1e" stroke-width="4" fill="none"></path></g></g><mask></mask></g><g clip-path="url(#AAumdBoY2H-OEw5_vTVNg)"><g stroke-linecap="round"><g transform="translate(1639.997958639393 660) rotate(0 40.001020680303554 0)"><path d="M0 0 C16.64 0, 33.28 0, 80 0 M0 0 C27.75 0, 55.51 0, 80 0" stroke="#1e1e1e" stroke-width="4" fill="none"></path></g><g transform="translate(1639.997958639393 660) rotate(0 40.001020680303554 0)"><path d="M56.51 8.55 C61.4 6.77, 66.28 4.99, 80 0 M56.51 8.55 C64.66 5.58, 72.81 2.62, 80 0" stroke="#1e1e1e" stroke-width="4" fill="none"></path></g><g transform="translate(1639.997958639393 660) rotate(0 40.001020680303554 0)"><path d="M56.51 -8.55 C61.4 -6.77, 66.28 -4.99, 80 0 M56.51 -8.55 C64.66 -5.58, 72.81 -2.62, 80 0" stroke="#1e1e1e" stroke-width="4" fill="none"></path></g></g><mask></mask></g><g clip-path="url(#AAumdBoY2H-OEw5_vTVNg)"><g stroke-linecap="round"><g transform="translate(2000 600) rotate(0 30 0)"><path d="M0 0 C23.37 0, 46.74 0, 60 0 M0 0 C22.58 0, 45.15 0, 60 0" stroke="#1e1e1e" stroke-width="4" fill="none"></path></g><g transform="translate(2000 600) rotate(0 30 0)"><path d="M36.51 8.55 C45.66 5.22, 54.81 1.89, 60 0 M36.51 8.55 C45.35 5.33, 54.19 2.12, 60 0" stroke="#1e1e1e" stroke-width="4" fill="none"></path></g><g transform="translate(2000 600) rotate(0 30 0)"><path d="M36.51 -8.55 C45.66 -5.22, 54.81 -1.89, 60 0 M36.51 -8.55 C45.35 -5.33, 54.19 -2.12, 60 0" stroke="#1e1e1e" stroke-width="4" fill="none"></path></g></g><mask></mask></g><g clip-path="url(#AAumdBoY2H-OEw5_vTVNg)"><g stroke-linecap="round"><g transform="translate(2281 600) rotate(0 39 0)"><path d="M0 0 C18.22 0, 36.45 0, 78 0 M0 0 C24.88 0, 49.75 0, 78 0" stroke="#1e1e1e" stroke-width="4" fill="none"></path></g><g transform="translate(2281 600) rotate(0 39 0)"><path d="M54.51 8.55 C60 6.55, 65.49 4.56, 78 0 M54.51 8.55 C62 5.82, 69.49 3.1, 78 0" stroke="#1e1e1e" stroke-width="4" fill="none"></path></g><g transform="translate(2281 600) rotate(0 39 0)"><path d="M54.51 -8.55 C60 -6.55, 65.49 -4.56, 78 0 M54.51 -8.55 C62 -5.82, 69.49 -3.1, 78 0" stroke="#1e1e1e" stroke-width="4" fill="none"></path></g></g><mask></mask></g><g clip-path="url(#AAumdBoY2H-OEw5_vTVNg)"><g stroke-linecap="round"><g transform="translate(440 520) rotate(0 1040 -170)"><path d="M0 0 C0 -126.34, 0 -252.68, 0 -340 M0 0 C0 -103.38, 0 -206.75, 0 -340 M0 -340 C670.62 -340, 1341.24 -340, 2080 -340 M0 -340 C810.81 -340, 1621.62 -340, 2080 -340 M2080 -340 C2080 -315.62, 2080 -291.24, 2080 -260 M2080 -340 C2080 -309.37, 2080 -278.75, 2080 -260" stroke="#1e1e1e" stroke-width="4" fill="none"></path></g><g transform="translate(440 520) rotate(0 1040 -170)"><path d="M2071.45 -283.49 C2074.63 -274.76, 2077.8 -266.03, 2080 -260 M2071.45 -283.49 C2074.05 -276.35, 2076.65 -269.21, 2080 -260" stroke="#1e1e1e" stroke-width="4" fill="none"></path></g><g transform="translate(440 520) rotate(0 1040 -170)"><path d="M2088.55 -283.49 C2085.37 -274.76, 2082.2 -266.03, 2080 -260 M2088.55 -283.49 C2085.95 -276.35, 2083.35 -269.21, 2080 -260" stroke="#1e1e1e" stroke-width="4" fill="none"></path></g></g><mask></mask></g><g clip-path="url(#AAumdBoY2H-OEw5_vTVNg)"><g stroke-linecap="round"><g transform="translate(2520 459) rotate(0 0 -39.5)"><path d="M0 0 C0 -25.11, 0 -50.23, 0 -79 M0 0 C0 -15.88, 0 -31.76, 0 -79" stroke="#1e1e1e" stroke-width="4" fill="none"></path></g><g transform="translate(2520 459) rotate(0 0 -39.5)"><path d="M8.55 -55.51 C5.83 -62.98, 3.11 -70.44, 0 -79 M8.55 -55.51 C6.83 -60.23, 5.11 -64.95, 0 -79" stroke="#1e1e1e" stroke-width="4" fill="none"></path></g><g transform="translate(2520 459) rotate(0 0 -39.5)"><path d="M-8.55 -55.51 C-5.83 -62.98, -3.11 -70.44, 0 -79 M-8.55 -55.51 C-6.83 -60.23, -5.11 -64.95, 0 -79" stroke="#1e1e1e" stroke-width="4" fill="none"></path></g></g><mask></mask></g><g clip-path="url(#AAumdBoY2H-OEw5_vTVNg)"><g transform="translate(1572.334656599589 639.2644745313432) rotate(0 27.061477661132812 20)"><text x="27.061477661132812" y="32.0006793478261" font-family="Helvetica, Segoe UI Emoji" font-size="34.782608695652186px" fill="#1e1e1e" text-anchor="middle" style="white-space: pre;" direction="ltr" dominant-baseline="alphabetic">Cat</text></g></g><g clip-path="url(#AAumdBoY2H-OEw5_vTVNg)"><g stroke-linecap="round"><g transform="translate(520 620) rotate(0 199.5 -80)"><path d="M0 0 C26.97 0, 53.93 0, 120 0 M0 0 C25.66 0, 51.31 0, 120 0 M120 0 C120 -48.05, 120 -96.1, 120 -160 M120 0 C120 -46.57, 120 -93.15, 120 -160 M120 -160 C200.76 -160, 281.51 -160, 399 -160 M120 -160 C182.78 -160, 245.57 -160, 399 -160" stroke="#1e1e1e" stroke-width="4" fill="none"></path></g><g transform="translate(520 620) rotate(0 199.5 -80)"><path d="M375.51 -151.45 C380.79 -153.37, 386.07 -155.29, 399 -160 M375.51 -151.45 C380.53 -153.28, 385.55 -155.11, 399 -160" stroke="#1e1e1e" stroke-width="4" fill="none"></path></g><g transform="translate(520 620) rotate(0 199.5 -80)"><path d="M375.51 -168.55 C380.79 -166.63, 386.07 -164.71, 399 -160 M375.51 -168.55 C380.53 -166.72, 385.55 -164.89, 399 -160" stroke="#1e1e1e" stroke-width="4" fill="none"></path></g></g><mask></mask></g><g clip-path="url(#AAumdBoY2H-OEw5_vTVNg)"><g transform="translate(545.9418334960938 380) rotate(0 175.08160400390625 30.69999999999999)"><text x="175.08160400390625" y="49.12104279891303" font-family="Helvetica, Segoe UI Emoji" font-size="53.39130434782608px" fill="#1e1e1e" text-anchor="middle" style="white-space: pre;" direction="ltr" dominant-baseline="alphabetic">Downsampling</text></g></g><g clip-path="url(#AAumdBoY2H-OEw5_vTVNg)"><g transform="translate(1020.0034949261208 280) rotate(0 140.95684814453125 30.69999999999999)"><text x="140.95684814453125" y="49.12104279891302" font-family="Helvetica, Segoe UI Emoji" font-size="53.391304347826065px" fill="#1e1e1e" text-anchor="middle" style="white-space: pre;" direction="ltr" dominant-baseline="alphabetic">Upsampling</text></g></g><g clip-path="url(#AAumdBoY2H-OEw5_vTVNg)"><g stroke-linecap="round"><g transform="translate(640 620) rotate(0 49.5 480)"><path d="M0 0 C0 265.86, 0 531.71, 0 960 M0 0 C0 292.2, 0 584.4, 0 960 M0 960 C31.72 960, 63.45 960, 99 960 M0 960 C25.7 960, 51.39 960, 99 960" stroke="#e03131" stroke-width="4" fill="none"></path></g><g transform="translate(640 620) rotate(0 49.5 480)"><path d="M75.51 968.55 C82.01 966.18, 88.52 963.81, 99 960 M75.51 968.55 C82.66 965.95, 89.81 963.35, 99 960" stroke="#e03131" stroke-width="4" fill="none"></path></g><g transform="translate(640 620) rotate(0 49.5 480)"><path d="M75.51 951.45 C82.01 953.82, 88.52 956.19, 99 960 M75.51 951.45 C82.66 954.05, 89.81 956.65, 99 960" stroke="#e03131" stroke-width="4" fill="none"></path></g></g><mask></mask></g><g clip-path="url(#AAumdBoY2H-OEw5_vTVNg)"><g stroke-linecap="round"><g transform="translate(560 1080) rotate(0 159.5 -150)"><path d="M0 0 C30.49 0, 60.97 0, 140 0 M0 0 C39.68 0, 79.35 0, 140 0 M140 0 C140 -64.16, 140 -128.33, 140 -300 M140 0 C140 -65.27, 140 -130.55, 140 -300 M140 -300 C202.89 -300, 265.79 -300, 319 -300 M140 -300 C195.52 -300, 251.05 -300, 319 -300" stroke="#1e1e1e" stroke-width="4" fill="none"></path></g><g transform="translate(560 1080) rotate(0 159.5 -150)"><path d="M295.51 -291.45 C300.62 -293.31, 305.74 -295.17, 319 -300 M295.51 -291.45 C302.17 -293.87, 308.82 -296.3, 319 -300" stroke="#1e1e1e" stroke-width="4" fill="none"></path></g><g transform="translate(560 1080) rotate(0 159.5 -150)"><path d="M295.51 -308.55 C300.62 -306.69, 305.74 -304.83, 319 -300 M295.51 -308.55 C302.17 -306.13, 308.82 -303.7, 319 -300" stroke="#1e1e1e" stroke-width="4" fill="none"></path></g></g><mask></mask></g><g clip-path="url(#AAumdBoY2H-OEw5_vTVNg)"><g stroke-linecap="round"><g transform="translate(560 1080) rotate(0 410 89.5)"><path d="M0 0 C241.46 0, 482.91 0, 820 0 M0 0 C250.02 0, 500.03 0, 820 0 M820 0 C820 45.54, 820 91.09, 820 179 M820 0 C820 48.17, 820 96.34, 820 179" stroke="#e03131" stroke-width="4" fill="none"></path></g><g transform="translate(560 1080) rotate(0 410 89.5)"><path d="M811.45 155.51 C813.97 162.43, 816.49 169.34, 820 179 M811.45 155.51 C814.06 162.67, 816.66 169.83, 820 179" stroke="#e03131" stroke-width="4" fill="none"></path></g><g transform="translate(560 1080) rotate(0 410 89.5)"><path d="M828.55 155.51 C826.03 162.43, 823.51 169.34, 820 179 M828.55 155.51 C825.94 162.67, 823.34 169.83, 820 179" stroke="#e03131" stroke-width="4" fill="none"></path></g></g><mask></mask></g><g clip-path="url(#AAumdBoY2H-OEw5_vTVNg)"><g stroke-linecap="round"><g transform="translate(1261 1460) rotate(0 59.5 -59.5)"><path d="M0 0 C37.77 0, 75.53 0, 119 0 M0 0 C41.31 0, 82.62 0, 119 0 M119 0 C119 -38.26, 119 -76.52, 119 -119 M119 0 C119 -26.98, 119 -53.96, 119 -119" stroke="#e03131" stroke-width="4" fill="none"></path></g><g transform="translate(1261 1460) rotate(0 59.5 -59.5)"><path d="M127.55 -95.51 C124.84 -102.96, 122.12 -110.42, 119 -119 M127.55 -95.51 C124.58 -103.66, 121.61 -111.82, 119 -119" stroke="#e03131" stroke-width="4" fill="none"></path></g><g transform="translate(1261 1460) rotate(0 59.5 -59.5)"><path d="M110.45 -95.51 C113.16 -102.96, 115.88 -110.42, 119 -119 M110.45 -95.51 C113.42 -103.66, 116.39 -111.82, 119 -119" stroke="#e03131" stroke-width="4" fill="none"></path></g></g><mask></mask></g><g clip-path="url(#AAumdBoY2H-OEw5_vTVNg)"><g stroke-linecap="round"><g transform="translate(1420 1300) rotate(0 40 0)"><path d="M0 0 C31.11 0, 62.22 0, 80 0 M0 0 C27.15 0, 54.29 0, 80 0" stroke="#e03131" stroke-width="4" fill="none"></path></g><g transform="translate(1420 1300) rotate(0 40 0)"><path d="M56.51 8.55 C65.64 5.23, 74.78 1.9, 80 0 M56.51 8.55 C64.48 5.65, 72.45 2.75, 80 0" stroke="#e03131" stroke-width="4" fill="none"></path></g><g transform="translate(1420 1300) rotate(0 40 0)"><path d="M56.51 -8.55 C65.64 -5.23, 74.78 -1.9, 80 0 M56.51 -8.55 C64.48 -5.65, 72.45 -2.75, 80 0" stroke="#e03131" stroke-width="4" fill="none"></path></g></g><mask></mask></g><g clip-path="url(#AAumdBoY2H-OEw5_vTVNg)"><g stroke-linecap="round"><g transform="translate(2061 1300) rotate(0 29 0)"><path d="M0 0 C22.05 0, 44.1 0, 58 0 M0 0 C12.58 0, 25.17 0, 58 0" stroke="#e03131" stroke-width="4" fill="none"></path></g><g transform="translate(2061 1300) rotate(0 29 0)"><path d="M34.51 8.55 C43.44 5.3, 52.37 2.05, 58 0 M34.51 8.55 C39.6 6.7, 44.7 4.84, 58 0" stroke="#e03131" stroke-width="4" fill="none"></path></g><g transform="translate(2061 1300) rotate(0 29 0)"><path d="M34.51 -8.55 C43.44 -5.3, 52.37 -2.05, 58 0 M34.51 -8.55 C39.6 -6.7, 44.7 -4.84, 58 0" stroke="#e03131" stroke-width="4" fill="none"></path></g></g><mask></mask></g><g clip-path="url(#AAumdBoY2H-OEw5_vTVNg)"><g stroke-linecap="round"><g transform="translate(2341 1300) rotate(0 29 0)"><path d="M0 0 C15 0, 30.01 0, 58 0 M0 0 C22.49 0, 44.98 0, 58 0" stroke="#e03131" stroke-width="4" fill="none"></path></g><g transform="translate(2341 1300) rotate(0 29 0)"><path d="M34.51 8.55 C40.59 6.34, 46.66 4.13, 58 0 M34.51 8.55 C43.62 5.23, 52.73 1.92, 58 0" stroke="#e03131" stroke-width="4" fill="none"></path></g><g transform="translate(2341 1300) rotate(0 29 0)"><path d="M34.51 -8.55 C40.59 -6.34, 46.66 -4.13, 58 0 M34.51 -8.55 C43.62 -5.23, 52.73 -1.92, 58 0" stroke="#e03131" stroke-width="4" fill="none"></path></g></g><mask></mask></g><g clip-path="url(#AAumdBoY2H-OEw5_vTVNg)"><g transform="translate(840.0031917406159 1020) rotate(0 129.1213836669922 30.69999999999999)"><text x="129.1213836669922" y="49.12104279891303" font-family="Helvetica, Segoe UI Emoji" font-size="53.39130434782608px" fill="#e03131" text-anchor="middle" style="white-space: pre;" direction="ltr" dominant-baseline="alphabetic">No change</text></g></g><g clip-path="url(#AAumdBoY2H-OEw5_vTVNg)"><g stroke-linecap="round"><g transform="translate(2920 1320) rotate(0 100 0)"><path d="M0 0 C41.43 0, 82.85 0, 200 0 M0 0 C44.87 0, 89.74 0, 200 0" stroke="#e03131" stroke-width="4" fill="none"></path></g><g transform="translate(2920 1320) rotate(0 100 0)"><path d="M176.51 8.55 C181.37 6.78, 186.24 5.01, 200 0 M176.51 8.55 C181.78 6.63, 187.05 4.71, 200 0" stroke="#e03131" stroke-width="4" fill="none"></path></g><g transform="translate(2920 1320) rotate(0 100 0)"><path d="M176.51 -8.55 C181.37 -6.78, 186.24 -5.01, 200 0 M176.51 -8.55 C181.78 -6.63, 187.05 -4.71, 200 0" stroke="#e03131" stroke-width="4" fill="none"></path></g></g><mask></mask></g><g clip-path="url(#AAumdBoY2H-OEw5_vTVNg)"><g stroke-linecap="round"><g transform="translate(3380 1320) rotate(0 90 0)"><path d="M0 0 C38.56 0, 77.12 0, 180 0 M0 0 C68.92 0, 137.83 0, 180 0" stroke="#e03131" stroke-width="4" fill="none"></path></g><g transform="translate(3380 1320) rotate(0 90 0)"><path d="M156.51 8.55 C161.54 6.72, 166.57 4.89, 180 0 M156.51 8.55 C165.5 5.28, 174.5 2, 180 0" stroke="#e03131" stroke-width="4" fill="none"></path></g><g transform="translate(3380 1320) rotate(0 90 0)"><path d="M156.51 -8.55 C161.54 -6.72, 166.57 -4.89, 180 0 M156.51 -8.55 C165.5 -5.28, 174.5 -2, 180 0" stroke="#e03131" stroke-width="4" fill="none"></path></g></g><mask></mask></g><g clip-path="url(#AAumdBoY2H-OEw5_vTVNg)"><g stroke-linecap="round"><g transform="translate(2780 1079) rotate(0 179.5 -79.5)"><path d="M0 0 C0 -39.96, 0 -79.93, 0 -159 M0 0 C0 -44.36, 0 -88.71, 0 -159 M0 -159 C86.63 -159, 173.27 -159, 359 -159 M0 -159 C90.88 -159, 181.76 -159, 359 -159" stroke="#e03131" stroke-width="4" fill="none"></path></g><g transform="translate(2780 1079) rotate(0 179.5 -79.5)"><path d="M335.51 -150.45 C341.41 -152.6, 347.32 -154.75, 359 -159 M335.51 -150.45 C342.06 -152.83, 348.61 -155.22, 359 -159" stroke="#e03131" stroke-width="4" fill="none"></path></g><g transform="translate(2780 1079) rotate(0 179.5 -79.5)"><path d="M335.51 -167.55 C341.41 -165.4, 347.32 -163.25, 359 -159 M335.51 -167.55 C342.06 -165.17, 348.61 -162.78, 359 -159" stroke="#e03131" stroke-width="4" fill="none"></path></g></g><mask></mask></g><g clip-path="url(#AAumdBoY2H-OEw5_vTVNg)"><g stroke-linecap="round"><g transform="translate(3819 1099) rotate(0 -179 -89.5)"><path d="M0 0 C0 -69.28, 0 -138.56, 0 -179 M0 0 C0 -42.58, 0 -85.15, 0 -179 M0 -179 C-127.76 -179, -255.52 -179, -358 -179 M0 -179 C-100.07 -179, -200.14 -179, -358 -179" stroke="#e03131" stroke-width="4" fill="none"></path></g><g transform="translate(3819 1099) rotate(0 -179 -89.5)"><path d="M-334.51 -187.55 C-343.6 -184.24, -352.69 -180.93, -358 -179 M-334.51 -187.55 C-340.1 -185.52, -345.68 -183.48, -358 -179" stroke="#e03131" stroke-width="4" fill="none"></path></g><g transform="translate(3819 1099) rotate(0 -179 -89.5)"><path d="M-334.51 -170.45 C-343.6 -173.76, -352.69 -177.07, -358 -179 M-334.51 -170.45 C-340.1 -172.48, -345.68 -174.52, -358 -179" stroke="#e03131" stroke-width="4" fill="none"></path></g></g><mask></mask></g><g clip-path="url(#AAumdBoY2H-OEw5_vTVNg)"><g stroke-linecap="round" transform="translate(3140 840) rotate(0 160 80)"><path d="M0 0 L320 0 L320 160 L0 160" stroke="none" stroke-width="0" fill="#ffffff"></path><path d="M0 0 C115.58 0, 231.16 0, 320 0 M0 0 C125.63 0, 251.27 0, 320 0 M320 0 C320 50.48, 320 100.95, 320 160 M320 0 C320 51.54, 320 103.09, 320 160 M320 160 C239.35 160, 158.69 160, 0 160 M320 160 C235.87 160, 151.73 160, 0 160 M0 160 C0 108.52, 0 57.05, 0 0 M0 160 C0 120.74, 0 81.48, 0 0" stroke="#1e1e1e" stroke-width="4" fill="none"></path></g></g><g clip-path="url(#AAumdBoY2H-OEw5_vTVNg)"><g transform="translate(3180.0110118090706 880) rotate(0 123.57011413574219 44.10642034023698)"><text x="123.57011413574219" y="70.57177072441793" font-family="Helvetica, Segoe UI Emoji" font-size="76.70681798302088px" fill="#1e1e1e" text-anchor="middle" style="white-space: pre;" direction="ltr" dominant-baseline="alphabetic">Metrics</text></g></g><g clip-path="url(#AAumdBoY2H-OEw5_vTVNg)"><g stroke-linecap="round" transform="translate(319.9999999999982 520) rotate(0 100 100.00000000000023)"><path d="M0 0 L200 0 L200 200 L0 200" stroke="none" stroke-width="0" fill="#ffffff"></path><path d="M0 0 C67.02 0, 134.04 0, 200 0 M0 0 C56.46 0, 112.92 0, 200 0 M200 0 C200 79.26, 200 158.52, 200 200 M200 0 C200 50.54, 200 101.08, 200 200 M200 200 C142.82 200, 85.64 200, 0 200 M200 200 C127.19 200, 54.38 200, 0 200 M0 200 C0 121.61, 0 43.22, 0 0 M0 200 C0 149.67, 0 99.33, 0 0" stroke="#1e1e1e" stroke-width="4" fill="none"></path></g></g><g clip-path="url(#AAumdBoY2H-OEw5_vTVNg)"><g stroke-linecap="round" transform="translate(300 539.9999999999999) rotate(0 100 100.00000000000023)"><path d="M0 0 L200 0 L200 200 L0 200" stroke="none" stroke-width="0" fill="#ffffff"></path><path d="M0 0 C66.87 0, 133.74 0, 200 0 M0 0 C59.79 0, 119.57 0, 200 0 M200 0 C200 69.5, 200 138.99, 200 200 M200 0 C200 44.81, 200 89.62, 200 200 M200 200 C140.5 200, 81.01 200, 0 200 M200 200 C153.4 200, 106.8 200, 0 200 M0 200 C0 147.77, 0 95.54, 0 0 M0 200 C0 154.61, 0 109.22, 0 0" stroke="#1e1e1e" stroke-width="4" fill="none"></path></g></g><g clip-path="url(#AAumdBoY2H-OEw5_vTVNg)"><g stroke-linecap="round" transform="translate(280.0000000000018 560.0000000000002) rotate(0 100 100.0000000000002)"><path d="M0 0 L200 0 L200 200 L0 200" stroke="none" stroke-width="0" fill="#ffffff"></path><path d="M0 0 C51.53 0, 103.07 0, 200 0 M0 0 C44.19 0, 88.37 0, 200 0 M200 0 C200 74.61, 200 149.22, 200 200 M200 0 C200 78.03, 200 156.07, 200 200 M200 200 C138.66 200, 77.32 200, 0 200 M200 200 C145.81 200, 91.61 200, 0 200 M0 200 C0 123.28, 0 46.57, 0 0 M0 200 C0 135.79, 0 71.58, 0 0" stroke="#1e1e1e" stroke-width="4" fill="none"></path></g></g><g clip-path="url(#AAumdBoY2H-OEw5_vTVNg)"><g stroke-linecap="round" transform="translate(260 580) rotate(0 100 100.0000000000002)"><path d="M0 0 L200 0 L200 200 L0 200" stroke="none" stroke-width="0" fill="#ffffff"></path><path d="M0 0 C60.96 0, 121.92 0, 200 0 M0 0 C65.45 0, 130.9 0, 200 0 M200 0 C200 53.86, 200 107.72, 200 200 M200 0 C200 52.63, 200 105.25, 200 200 M200 200 C125.59 200, 51.17 200, 0 200 M200 200 C138.5 200, 76.99 200, 0 200 M0 200 C0 150.89, 0 101.77, 0 0 M0 200 C0 146.94, 0 93.88, 0 0" stroke="#1e1e1e" stroke-width="4" fill="none"></path></g></g><g clip-path="url(#AAumdBoY2H-OEw5_vTVNg)"><g transform="translate(280 640.0000000000002) rotate(0 78.31932067871094 30.594195688225597)"><text x="0" y="48.95175230617754" font-family="Helvetica, Segoe UI Emoji" font-size="53.207296849088px" fill="#1e1e1e" text-anchor="start" style="white-space: pre;" direction="ltr" dominant-baseline="alphabetic">HRMS</text></g></g><g clip-path="url(#AAumdBoY2H-OEw5_vTVNg)"><g stroke-linecap="round" transform="translate(160 880) rotate(0 197.35165659328595 200)"><path d="M0 0 L394.7 0 L394.7 400 L0 400" stroke="none" stroke-width="0" fill="#ffffff"></path><path d="M0 0 C96.82 0, 193.64 0, 394.7 0 M0 0 C135.63 0, 271.25 0, 394.7 0 M394.7 0 C394.7 150.34, 394.7 300.69, 394.7 400 M394.7 0 C394.7 124.98, 394.7 249.95, 394.7 400 M394.7 400 C270.49 400, 146.27 400, 0 400 M394.7 400 C262.63 400, 130.55 400, 0 400 M0 400 C0 297.53, 0 195.05, 0 0 M0 400 C0 305.59, 0 211.18, 0 0" stroke="#1e1e1e" stroke-width="4" fill="none"></path></g></g><g clip-path="url(#AAumdBoY2H-OEw5_vTVNg)"><g transform="translate(200 1040) rotate(0 152.43112182617188 31.856784669434887)"><text x="152.43112182617188" y="50.971937562966346" font-family="Helvetica, Segoe UI Emoji" font-size="55.4031037729302px" fill="#1e1e1e" text-anchor="middle" style="white-space: pre;" direction="ltr" dominant-baseline="alphabetic">Original Pan</text></g></g><g clip-path="url(#AAumdBoY2H-OEw5_vTVNg)"><g transform="translate(1740 940) rotate(0 305.394775390625 40)"><text x="305.394775390625" y="64.00135869565216" font-family="Helvetica, Segoe UI Emoji" font-size="69.56521739130434px" fill="#e03131" text-anchor="middle" style="white-space: pre;" direction="ltr" dominant-baseline="alphabetic">Real world use / FR</text></g></g><g clip-path="url(#AAumdBoY2H-OEw5_vTVNg)"><g stroke-linecap="round" transform="translate(952.3076923076915 380) rotate(0 53.846153846154266 53.84615384615404)"><path d="M0 0 L107.69 0 L107.69 107.69 L0 107.69" stroke="none" stroke-width="0" fill="#ffffff"></path><path d="M0 0 C35.21 0, 70.41 0, 107.69 0 M0 0 C33.43 0, 66.86 0, 107.69 0 M107.69 0 C107.69 29.99, 107.69 59.98, 107.69 107.69 M107.69 0 C107.69 31.47, 107.69 62.95, 107.69 107.69 M107.69 107.69 C81.85 107.69, 56.01 107.69, 0 107.69 M107.69 107.69 C78.02 107.69, 48.35 107.69, 0 107.69 M0 107.69 C0 70.19, 0 32.69, 0 0 M0 107.69 C0 86.04, 0 64.39, 0 0" stroke="#1e1e1e" stroke-width="4" fill="none"></path></g></g><g clip-path="url(#AAumdBoY2H-OEw5_vTVNg)"><g stroke-linecap="round" transform="translate(941.538461538461 390.7692307692307) rotate(0 53.846153846154266 53.84615384615404)"><path d="M0 0 L107.69 0 L107.69 107.69 L0 107.69" stroke="none" stroke-width="0" fill="#ffffff"></path><path d="M0 0 C28.67 0, 57.34 0, 107.69 0 M0 0 C29.73 0, 59.46 0, 107.69 0 M107.69 0 C107.69 40.14, 107.69 80.28, 107.69 107.69 M107.69 0 C107.69 27.59, 107.69 55.18, 107.69 107.69 M107.69 107.69 C68.35 107.69, 29.02 107.69, 0 107.69 M107.69 107.69 C72.75 107.69, 37.8 107.69, 0 107.69 M0 107.69 C0 70.13, 0 32.58, 0 0 M0 107.69 C0 68.24, 0 28.79, 0 0" stroke="#1e1e1e" stroke-width="4" fill="none"></path></g></g><g clip-path="url(#AAumdBoY2H-OEw5_vTVNg)"><g stroke-linecap="round" transform="translate(930.7692307692323 401.53846153846166) rotate(0 53.846153846154266 53.84615384615404)"><path d="M0 0 L107.69 0 L107.69 107.69 L0 107.69" stroke="none" stroke-width="0" fill="#ffffff"></path><path d="M0 0 C22.75 0, 45.49 0, 107.69 0 M0 0 C26.78 0, 53.56 0, 107.69 0 M107.69 0 C107.69 25.31, 107.69 50.62, 107.69 107.69 M107.69 0 C107.69 25.45, 107.69 50.89, 107.69 107.69 M107.69 107.69 C82.47 107.69, 57.24 107.69, 0 107.69 M107.69 107.69 C67.52 107.69, 27.35 107.69, 0 107.69 M0 107.69 C0 74.65, 0 41.61, 0 0 M0 107.69 C0 79.29, 0 50.89, 0 0" stroke="#1e1e1e" stroke-width="4" fill="none"></path></g></g><g clip-path="url(#AAumdBoY2H-OEw5_vTVNg)"><g stroke-linecap="round" transform="translate(920 412.3076923076923) rotate(0 53.846153846154266 53.84615384615401)"><path d="M0 0 L107.69 0 L107.69 107.69 L0 107.69" stroke="none" stroke-width="0" fill="#ffffff"></path><path d="M0 0 C26.6 0, 53.21 0, 107.69 0 M0 0 C28.25 0, 56.5 0, 107.69 0 M107.69 0 C107.69 32.94, 107.69 65.88, 107.69 107.69 M107.69 0 C107.69 24.08, 107.69 48.15, 107.69 107.69 M107.69 107.69 C84.23 107.69, 60.76 107.69, 0 107.69 M107.69 107.69 C65.25 107.69, 22.81 107.69, 0 107.69 M0 107.69 C0 75.5, 0 43.31, 0 0 M0 107.69 C0 78.25, 0 48.81, 0 0" stroke="#1e1e1e" stroke-width="4" fill="none"></path></g></g><g clip-path="url(#AAumdBoY2H-OEw5_vTVNg)"><g transform="translate(940 440) rotate(0 39.99749755859375 30.66677284380532)"><text x="0" y="49.067878220361756" font-family="Helvetica, Segoe UI Emoji" font-size="53.333517989226664px" fill="#1e1e1e" text-anchor="start" style="white-space: pre;" direction="ltr" dominant-baseline="alphabetic">MS</text></g></g><g clip-path="url(#AAumdBoY2H-OEw5_vTVNg)"><g stroke-linecap="round" transform="translate(880 660) rotate(0 100 100)"><path d="M0 0 L200 0 L200 200 L0 200" stroke="none" stroke-width="0" fill="#ffffff"></path><path d="M0 0 C47.37 0, 94.73 0, 200 0 M0 0 C61.9 0, 123.8 0, 200 0 M200 0 C200 40.57, 200 81.15, 200 200 M200 0 C200 75.43, 200 150.87, 200 200 M200 200 C157.85 200, 115.7 200, 0 200 M200 200 C154.16 200, 108.32 200, 0 200 M0 200 C0 144.91, 0 89.81, 0 0 M0 200 C0 131.46, 0 62.93, 0 0" stroke="#1e1e1e" stroke-width="4" fill="none"></path></g></g><g clip-path="url(#AAumdBoY2H-OEw5_vTVNg)"><g transform="translate(920.0066252231918 740) rotate(0 49.99822998046875 32.319658592256985)"><text x="49.99822998046875" y="51.71255156210144" font-family="Helvetica, Segoe UI Emoji" font-size="56.20810189957741px" fill="#1e1e1e" text-anchor="middle" style="white-space: pre;" direction="ltr" dominant-baseline="alphabetic">Pan</text></g></g><g clip-path="url(#AAumdBoY2H-OEw5_vTVNg)"><g stroke-linecap="round" transform="translate(1280 660) rotate(0 100 100)"><path d="M0 0 L200 0 L200 200 L0 200" stroke="none" stroke-width="0" fill="#ffffff"></path><path d="M0 0 C70.85 0, 141.7 0, 200 0 M0 0 C52.5 0, 105.01 0, 200 0 M200 0 C200 58.91, 200 117.81, 200 200 M200 0 C200 68.81, 200 137.63, 200 200 M200 200 C125.05 200, 50.1 200, 0 200 M200 200 C152.93 200, 105.87 200, 0 200 M0 200 C0 125.85, 0 51.71, 0 0 M0 200 C0 159.6, 0 119.2, 0 0" stroke="#1e1e1e" stroke-width="4" fill="none"></path></g></g><g clip-path="url(#AAumdBoY2H-OEw5_vTVNg)"><g transform="translate(1320.0039243861775 740) rotate(0 61.88392639160156 40)"><text x="61.88392639160156" y="64.00135869565221" font-family="Helvetica, Segoe UI Emoji" font-size="69.5652173913044px" fill="#1e1e1e" text-anchor="middle" style="white-space: pre;" direction="ltr" dominant-baseline="alphabetic">Pan</text></g></g><g clip-path="url(#AAumdBoY2H-OEw5_vTVNg)"><g stroke-linecap="round" transform="translate(1339.9999999999982 300) rotate(0 100 100.00000000000023)"><path d="M0 0 L200 0 L200 200 L0 200" stroke="none" stroke-width="0" fill="#ffffff"></path><path d="M0 0 C73.64 0, 147.29 0, 200 0 M0 0 C40.05 0, 80.09 0, 200 0 M200 0 C200 52.88, 200 105.76, 200 200 M200 0 C200 68.14, 200 136.29, 200 200 M200 200 C140.69 200, 81.39 200, 0 200 M200 200 C158.38 200, 116.75 200, 0 200 M0 200 C0 130.92, 0 61.83, 0 0 M0 200 C0 137.9, 0 75.79, 0 0" stroke="#1e1e1e" stroke-width="4" fill="none"></path></g></g><g clip-path="url(#AAumdBoY2H-OEw5_vTVNg)"><g stroke-linecap="round" transform="translate(1320 319.9999999999999) rotate(0 100 100.00000000000023)"><path d="M0 0 L200 0 L200 200 L0 200" stroke="none" stroke-width="0" fill="#ffffff"></path><path d="M0 0 C71.34 0, 142.68 0, 200 0 M0 0 C54.66 0, 109.32 0, 200 0 M200 0 C200 71.35, 200 142.7, 200 200 M200 0 C200 64.66, 200 129.32, 200 200 M200 200 C121.24 200, 42.47 200, 0 200 M200 200 C131.81 200, 63.62 200, 0 200 M0 200 C0 136.85, 0 73.7, 0 0 M0 200 C0 151.32, 0 102.64, 0 0" stroke="#1e1e1e" stroke-width="4" fill="none"></path></g></g><g clip-path="url(#AAumdBoY2H-OEw5_vTVNg)"><g stroke-linecap="round" transform="translate(1300.0000000000018 340.00000000000017) rotate(0 100 100.0000000000002)"><path d="M0 0 L200 0 L200 200 L0 200" stroke="none" stroke-width="0" fill="#ffffff"></path><path d="M0 0 C42.72 0, 85.45 0, 200 0 M0 0 C60.58 0, 121.15 0, 200 0 M200 0 C200 42.88, 200 85.76, 200 200 M200 0 C200 45.24, 200 90.48, 200 200 M200 200 C153.82 200, 107.65 200, 0 200 M200 200 C148.53 200, 97.06 200, 0 200 M0 200 C0 147.22, 0 94.44, 0 0 M0 200 C0 152.17, 0 104.35, 0 0" stroke="#1e1e1e" stroke-width="4" fill="none"></path></g></g><g clip-path="url(#AAumdBoY2H-OEw5_vTVNg)"><g stroke-linecap="round" transform="translate(1280 359.99999999999994) rotate(0 100 100.0000000000002)"><path d="M0 0 L200 0 L200 200 L0 200" stroke="none" stroke-width="0" fill="#ffffff"></path><path d="M0 0 C70.93 0, 141.87 0, 200 0 M0 0 C75.35 0, 150.69 0, 200 0 M200 0 C200 66.76, 200 133.53, 200 200 M200 0 C200 49.13, 200 98.26, 200 200 M200 200 C152.23 200, 104.47 200, 0 200 M200 200 C135.5 200, 71.01 200, 0 200 M0 200 C0 123.93, 0 47.86, 0 0 M0 200 C0 143.61, 0 87.22, 0 0" stroke="#1e1e1e" stroke-width="4" fill="none"></path></g></g><g clip-path="url(#AAumdBoY2H-OEw5_vTVNg)"><g transform="translate(1320 400) rotate(0 63.63176727294922 65.86641054393243)"><text x="0" y="52.69424709021634" font-family="Helvetica, Segoe UI Emoji" font-size="57.275139603419525px" fill="#1e1e1e" text-anchor="start" style="white-space: pre;" direction="ltr" dominant-baseline="alphabetic">UMS</text><text x="0" y="118.56065763414878" font-family="Helvetica, Segoe UI Emoji" font-size="57.275139603419525px" fill="#1e1e1e" text-anchor="start" style="white-space: pre;" direction="ltr" dominant-baseline="alphabetic">/lms</text></g></g><g clip-path="url(#AAumdBoY2H-OEw5_vTVNg)"><g stroke-linecap="round" transform="translate(1799.9999999999982 480) rotate(0 100 100.00000000000023)"><path d="M0 0 L200 0 L200 200 L0 200" stroke="none" stroke-width="0" fill="#ffffff"></path><path d="M0 0 C56.28 0, 112.57 0, 200 0 M0 0 C57.91 0, 115.81 0, 200 0 M200 0 C200 71.52, 200 143.04, 200 200 M200 0 C200 40.42, 200 80.85, 200 200 M200 200 C135.38 200, 70.75 200, 0 200 M200 200 C157.21 200, 114.42 200, 0 200 M0 200 C0 124.51, 0 49.01, 0 0 M0 200 C0 132.21, 0 64.42, 0 0" stroke="#1e1e1e" stroke-width="4" fill="none"></path></g></g><g clip-path="url(#AAumdBoY2H-OEw5_vTVNg)"><g stroke-linecap="round" transform="translate(1780 499.9999999999999) rotate(0 100 100.00000000000023)"><path d="M0 0 L200 0 L200 200 L0 200" stroke="none" stroke-width="0" fill="#ffffff"></path><path d="M0 0 C47.4 0, 94.79 0, 200 0 M0 0 C67.08 0, 134.16 0, 200 0 M200 0 C200 47.92, 200 95.85, 200 200 M200 0 C200 79.38, 200 158.77, 200 200 M200 200 C147.02 200, 94.05 200, 0 200 M200 200 C126.48 200, 52.96 200, 0 200 M0 200 C0 135.61, 0 71.23, 0 0 M0 200 C0 135.59, 0 71.18, 0 0" stroke="#1e1e1e" stroke-width="4" fill="none"></path></g></g><g clip-path="url(#AAumdBoY2H-OEw5_vTVNg)"><g stroke-linecap="round" transform="translate(1760.0000000000018 520.0000000000002) rotate(0 100 100.0000000000002)"><path d="M0 0 L200 0 L200 200 L0 200" stroke="none" stroke-width="0" fill="#ffffff"></path><path d="M0 0 C69.43 0, 138.87 0, 200 0 M0 0 C59.71 0, 119.41 0, 200 0 M200 0 C200 46.61, 200 93.21, 200 200 M200 0 C200 47.34, 200 94.69, 200 200 M200 200 C146.82 200, 93.63 200, 0 200 M200 200 C155.98 200, 111.97 200, 0 200 M0 200 C0 128.94, 0 57.88, 0 0 M0 200 C0 151.35, 0 102.71, 0 0" stroke="#1e1e1e" stroke-width="4" fill="none"></path></g></g><g clip-path="url(#AAumdBoY2H-OEw5_vTVNg)"><g stroke-linecap="round" transform="translate(1740 540) rotate(0 100 100.0000000000002)"><path d="M0 0 L200 0 L200 200 L0 200" stroke="none" stroke-width="0" fill="#ffffff"></path><path d="M0 0 C50.64 0, 101.28 0, 200 0 M0 0 C53.21 0, 106.41 0, 200 0 M200 0 C200 51.19, 200 102.38, 200 200 M200 0 C200 65.42, 200 130.84, 200 200 M200 200 C158.88 200, 117.77 200, 0 200 M200 200 C147.79 200, 95.58 200, 0 200 M0 200 C0 139.5, 0 79, 0 0 M0 200 C0 131.63, 0 63.26, 0 0" stroke="#1e1e1e" stroke-width="4" fill="none"></path></g></g><g clip-path="url(#AAumdBoY2H-OEw5_vTVNg)"><g stroke-linecap="round" transform="translate(1720 560) rotate(0 100 100)"><path d="M0 0 L200 0 L200 200 L0 200" stroke="none" stroke-width="0" fill="#ffffff"></path><path d="M0 0 C66.5 0, 133 0, 200 0 M0 0 C47.05 0, 94.1 0, 200 0 M200 0 C200 45.34, 200 90.67, 200 200 M200 0 C200 78.24, 200 156.49, 200 200 M200 200 C147.45 200, 94.91 200, 0 200 M200 200 C158.56 200, 117.11 200, 0 200 M0 200 C0 138.06, 0 76.12, 0 0 M0 200 C0 149.43, 0 98.86, 0 0" stroke="#1e1e1e" stroke-width="4" fill="none"></path></g></g><g clip-path="url(#AAumdBoY2H-OEw5_vTVNg)"><g transform="translate(1740 620) rotate(0 88.4150161743164 45.16420221569513)"><text x="0" y="36.13212882762093" font-family="Helvetica, Segoe UI Emoji" font-size="39.27321931799579px" fill="#1e1e1e" text-anchor="start" style="white-space: pre;" direction="ltr" dominant-baseline="alphabetic">DataCube</text><text x="0" y="81.29633104331609" font-family="Helvetica, Segoe UI Emoji" font-size="39.27321931799579px" fill="#1e1e1e" text-anchor="start" style="white-space: pre;" direction="ltr" dominant-baseline="alphabetic">/Input</text></g></g><g clip-path="url(#AAumdBoY2H-OEw5_vTVNg)"><g stroke-linecap="round" transform="translate(2419.999999999998 460) rotate(0 100 100.00000000000023)"><path d="M0 0 L200 0 L200 200 L0 200" stroke="none" stroke-width="0" fill="#ffffff"></path><path d="M0 0 C78.34 0, 156.68 0, 200 0 M0 0 C76.74 0, 153.49 0, 200 0 M200 0 C200 40.47, 200 80.94, 200 200 M200 0 C200 53.55, 200 107.11, 200 200 M200 200 C143.16 200, 86.31 200, 0 200 M200 200 C136.88 200, 73.75 200, 0 200 M0 200 C0 152.7, 0 105.41, 0 0 M0 200 C0 155.98, 0 111.95, 0 0" stroke="#1e1e1e" stroke-width="4" fill="none"></path></g></g><g clip-path="url(#AAumdBoY2H-OEw5_vTVNg)"><g stroke-linecap="round" transform="translate(2400 479.9999999999999) rotate(0 100 100.00000000000023)"><path d="M0 0 L200 0 L200 200 L0 200" stroke="none" stroke-width="0" fill="#ffffff"></path><path d="M0 0 C43.43 0, 86.86 0, 200 0 M0 0 C45.83 0, 91.66 0, 200 0 M200 0 C200 62.44, 200 124.89, 200 200 M200 0 C200 46.69, 200 93.38, 200 200 M200 200 C144.82 200, 89.64 200, 0 200 M200 200 C120.06 200, 40.11 200, 0 200 M0 200 C0 141.78, 0 83.56, 0 0 M0 200 C0 157.22, 0 114.43, 0 0" stroke="#1e1e1e" stroke-width="4" fill="none"></path></g></g><g clip-path="url(#AAumdBoY2H-OEw5_vTVNg)"><g stroke-linecap="round" transform="translate(2380.000000000002 500.00000000000017) rotate(0 100 100.0000000000002)"><path d="M0 0 L200 0 L200 200 L0 200" stroke="none" stroke-width="0" fill="#ffffff"></path><path d="M0 0 C65.65 0, 131.3 0, 200 0 M0 0 C42.46 0, 84.92 0, 200 0 M200 0 C200 59.82, 200 119.64, 200 200 M200 0 C200 56.87, 200 113.74, 200 200 M200 200 C122.14 200, 44.28 200, 0 200 M200 200 C153.24 200, 106.48 200, 0 200 M0 200 C0 127.92, 0 55.84, 0 0 M0 200 C0 151.13, 0 102.25, 0 0" stroke="#1e1e1e" stroke-width="4" fill="none"></path></g></g><g clip-path="url(#AAumdBoY2H-OEw5_vTVNg)"><g stroke-linecap="round" transform="translate(2360 520) rotate(0 100 100.0000000000002)"><path d="M0 0 L200 0 L200 200 L0 200" stroke="none" stroke-width="0" fill="#ffffff"></path><path d="M0 0 C59.29 0, 118.58 0, 200 0 M0 0 C56.86 0, 113.73 0, 200 0 M200 0 C200 65.32, 200 130.63, 200 200 M200 0 C200 77.1, 200 154.21, 200 200 M200 200 C145.53 200, 91.06 200, 0 200 M200 200 C151.71 200, 103.43 200, 0 200 M0 200 C0 134.75, 0 69.5, 0 0 M0 200 C0 134.94, 0 69.89, 0 0" stroke="#1e1e1e" stroke-width="4" fill="none"></path></g></g><g clip-path="url(#AAumdBoY2H-OEw5_vTVNg)"><g transform="translate(2380 580.0000000000002) rotate(0 73.92927551269531 30.594195688225597)"><text x="0" y="48.95175230617754" font-family="Helvetica, Segoe UI Emoji" font-size="53.207296849088px" fill="#1e1e1e" text-anchor="start" style="white-space: pre;" direction="ltr" dominant-baseline="alphabetic">Fused</text></g></g><g clip-path="url(#AAumdBoY2H-OEw5_vTVNg)"><g stroke-linecap="round" transform="translate(2120 1220) rotate(0 110 73.33333333333337)"><path d="M0 0 L220 0 L220 146.67 L0 146.67" stroke="none" stroke-width="0" fill="#ffffff"></path><path d="M0 0 C65.87 0, 131.74 0, 220 0 M0 0 C52.7 0, 105.39 0, 220 0 M220 0 C220 34.27, 220 68.53, 220 146.67 M220 0 C220 39.49, 220 78.98, 220 146.67 M220 146.67 C155.21 146.67, 90.42 146.67, 0 146.67 M220 146.67 C146.87 146.67, 73.75 146.67, 0 146.67 M0 146.67 C0 103.42, 0 60.18, 0 0 M0 146.67 C0 114.83, 0 82.99, 0 0" stroke="#1e1e1e" stroke-width="4" fill="none"></path></g></g><g clip-path="url(#AAumdBoY2H-OEw5_vTVNg)"><g transform="translate(2160.002639770508 1264.8887295326879) rotate(0 69.99736022949219 29.556113302258836)"><text x="69.99736022949219" y="47.290785227680175" font-family="Helvetica, Segoe UI Emoji" font-size="51.401936177841534px" fill="#1e1e1e" text-anchor="middle" style="white-space: pre;" direction="ltr" dominant-baseline="alphabetic">Model</text></g></g><g clip-path="url(#AAumdBoY2H-OEw5_vTVNg)"><g stroke-linecap="round" transform="translate(859.9999999999964 1140) rotate(0 200.00000000000182 200.00000000000182)"><path d="M0 0 L400 0 L400 400 L0 400" stroke="none" stroke-width="0" fill="#ffffff"></path><path d="M0 0 C90.53 0, 181.06 0, 400 0 M0 0 C134 0, 268 0, 400 0 M400 0 C400 117.58, 400 235.17, 400 400 M400 0 C400 122.21, 400 244.43, 400 400 M400 400 C246.08 400, 92.15 400, 0 400 M400 400 C298.66 400, 197.31 400, 0 400 M0 400 C0 270.72, 0 141.44, 0 0 M0 400 C0 255.79, 0 111.59, 0 0" stroke="#1e1e1e" stroke-width="4" fill="none"></path></g></g><g clip-path="url(#AAumdBoY2H-OEw5_vTVNg)"><g stroke-linecap="round" transform="translate(820 1180.0000000000005) rotate(0 200.00000000000182 200.00000000000188)"><path d="M0 0 L400 0 L400 400 L0 400" stroke="none" stroke-width="0" fill="#ffffff"></path><path d="M0 0 C123.44 0, 246.89 0, 400 0 M0 0 C139.42 0, 278.84 0, 400 0 M400 0 C400 95.78, 400 191.57, 400 400 M400 0 C400 148.94, 400 297.87, 400 400 M400 400 C290.19 400, 180.38 400, 0 400 M400 400 C244.98 400, 89.96 400, 0 400 M0 400 C0 281.43, 0 162.86, 0 0 M0 400 C0 272.29, 0 144.59, 0 0" stroke="#1e1e1e" stroke-width="4" fill="none"></path></g></g><g clip-path="url(#AAumdBoY2H-OEw5_vTVNg)"><g stroke-linecap="round" transform="translate(780.0000000000036 1220.000000000001) rotate(0 200.00000000000182 200.00000000000182)"><path d="M0 0 L400 0 L400 400 L0 400" stroke="none" stroke-width="0" fill="#ffffff"></path><path d="M0 0 C136.33 0, 272.65 0, 400 0 M0 0 C149.95 0, 299.89 0, 400 0 M400 0 C400 82.98, 400 165.97, 400 400 M400 0 C400 144.63, 400 289.26, 400 400 M400 400 C261.32 400, 122.64 400, 0 400 M400 400 C288.62 400, 177.24 400, 0 400 M0 400 C0 293.04, 0 186.07, 0 0 M0 400 C0 312.07, 0 224.14, 0 0" stroke="#1e1e1e" stroke-width="4" fill="none"></path></g></g><g clip-path="url(#AAumdBoY2H-OEw5_vTVNg)"><g stroke-linecap="round" transform="translate(740 1260.000000000001) rotate(0 200.00000000000182 200.00000000000182)"><path d="M0 0 L400 0 L400 400 L0 400" stroke="none" stroke-width="0" fill="#ffffff"></path><path d="M0 0 C101.97 0, 203.95 0, 400 0 M0 0 C98.05 0, 196.1 0, 400 0 M400 0 C400 106.44, 400 212.88, 400 400 M400 0 C400 105.13, 400 210.26, 400 400 M400 400 C245.87 400, 91.74 400, 0 400 M400 400 C284.29 400, 168.57 400, 0 400 M0 400 C0 244.48, 0 88.96, 0 0 M0 400 C0 276.34, 0 152.67, 0 0" stroke="#1e1e1e" stroke-width="4" fill="none"></path></g></g><g clip-path="url(#AAumdBoY2H-OEw5_vTVNg)"><g transform="translate(800 1400.000000000004) rotate(0 145.06521606445312 45.50520000025733)"><text x="0" y="72.80986569334655" font-family="Helvetica, Segoe UI Emoji" font-size="79.13947826131714px" fill="#1e1e1e" text-anchor="start" style="white-space: pre;" direction="ltr" dominant-baseline="alphabetic">UHRMS</text></g></g><g clip-path="url(#AAumdBoY2H-OEw5_vTVNg)"><g transform="translate(440.00349492612077 1600) rotate(0 140.95684814453125 30.700000000000045)"><text x="140.95684814453125" y="49.12104279891312" font-family="Helvetica, Segoe UI Emoji" font-size="53.39130434782618px" fill="#e03131" text-anchor="middle" style="white-space: pre;" direction="ltr" dominant-baseline="alphabetic">Upsampling</text></g></g><g clip-path="url(#AAumdBoY2H-OEw5_vTVNg)"><g stroke-linecap="round" transform="translate(1340 1260) rotate(0 40 40)"><path d="M80 40 C80 41.9, 79.86 43.81, 79.59 45.69 C79.32 47.57, 78.91 49.45, 78.38 51.27 C77.85 53.09, 77.17 54.89, 76.39 56.62 C75.6 58.34, 74.68 60.03, 73.65 61.63 C72.62 63.22, 71.47 64.76, 70.23 66.19 C68.99 67.63, 67.63 68.99, 66.19 70.23 C64.76 71.47, 63.22 72.62, 61.63 73.65 C60.03 74.68, 58.34 75.6, 56.62 76.39 C54.89 77.17, 53.09 77.85, 51.27 78.38 C49.45 78.91, 47.57 79.32, 45.69 79.59 C43.81 79.86, 41.9 80, 40 80 C38.1 80, 36.19 79.86, 34.31 79.59 C32.43 79.32, 30.55 78.91, 28.73 78.38 C26.91 77.85, 25.11 77.17, 23.38 76.39 C21.66 75.6, 19.97 74.68, 18.37 73.65 C16.78 72.62, 15.24 71.47, 13.81 70.23 C12.37 68.99, 11.01 67.63, 9.77 66.19 C8.53 64.76, 7.38 63.22, 6.35 61.63 C5.32 60.03, 4.4 58.34, 3.61 56.62 C2.83 54.89, 2.15 53.09, 1.62 51.27 C1.09 49.45, 0.68 47.57, 0.41 45.69 C0.14 43.81, 0 41.9, 0 40 C0 38.1, 0.14 36.19, 0.41 34.31 C0.68 32.43, 1.09 30.55, 1.62 28.73 C2.15 26.91, 2.83 25.11, 3.61 23.38 C4.4 21.66, 5.32 19.97, 6.35 18.37 C7.38 16.78, 8.53 15.24, 9.77 13.81 C11.01 12.37, 12.37 11.01, 13.81 9.77 C15.24 8.53, 16.78 7.38, 18.37 6.35 C19.97 5.32, 21.66 4.4, 23.38 3.61 C25.11 2.83, 26.91 2.15, 28.73 1.62 C30.55 1.09, 32.43 0.68, 34.31 0.41 C36.19 0.14, 38.1 0, 40 0 C41.9 0, 43.81 0.14, 45.69 0.41 C47.57 0.68, 49.45 1.09, 51.27 1.62 C53.09 2.15, 54.89 2.83, 56.62 3.61 C58.34 4.4, 60.03 5.32, 61.63 6.35 C63.22 7.38, 64.76 8.53, 66.19 9.77 C67.63 11.01, 68.99 12.37, 70.23 13.81 C71.47 15.24, 72.62 16.78, 73.65 18.37 C74.68 19.97, 75.6 21.66, 76.39 23.38 C77.17 25.11, 77.85 26.91, 78.38 28.73 C78.91 30.55, 79.32 32.43, 79.59 34.31 C79.86 36.19, 79.93 39.05, 80 40 C80.07 40.95, 80.07 39.05, 80 40" stroke="none" stroke-width="0" fill="#ffffff"></path><path d="M80 40 C80 41.9, 79.86 43.81, 79.59 45.69 C79.32 47.57, 78.91 49.45, 78.38 51.27 C77.85 53.09, 77.17 54.89, 76.39 56.62 C75.6 58.34, 74.68 60.03, 73.65 61.63 C72.62 63.22, 71.47 64.76, 70.23 66.19 C68.99 67.63, 67.63 68.99, 66.19 70.23 C64.76 71.47, 63.22 72.62, 61.63 73.65 C60.03 74.68, 58.34 75.6, 56.62 76.39 C54.89 77.17, 53.09 77.85, 51.27 78.38 C49.45 78.91, 47.57 79.32, 45.69 79.59 C43.81 79.86, 41.9 80, 40 80 C38.1 80, 36.19 79.86, 34.31 79.59 C32.43 79.32, 30.55 78.91, 28.73 78.38 C26.91 77.85, 25.11 77.17, 23.38 76.39 C21.66 75.6, 19.97 74.68, 18.37 73.65 C16.78 72.62, 15.24 71.47, 13.81 70.23 C12.37 68.99, 11.01 67.63, 9.77 66.19 C8.53 64.76, 7.38 63.22, 6.35 61.63 C5.32 60.03, 4.4 58.34, 3.61 56.62 C2.83 54.89, 2.15 53.09, 1.62 51.27 C1.09 49.45, 0.68 47.57, 0.41 45.69 C0.14 43.81, 0 41.9, 0 40 C0 38.1, 0.14 36.19, 0.41 34.31 C0.68 32.43, 1.09 30.55, 1.62 28.73 C2.15 26.91, 2.83 25.11, 3.61 23.38 C4.4 21.66, 5.32 19.97, 6.35 18.37 C7.38 16.78, 8.53 15.24, 9.77 13.81 C11.01 12.37, 12.37 11.01, 13.81 9.77 C15.24 8.53, 16.78 7.38, 18.37 6.35 C19.97 5.32, 21.66 4.4, 23.38 3.61 C25.11 2.83, 26.91 2.15, 28.73 1.62 C30.55 1.09, 32.43 0.68, 34.31 0.41 C36.19 0.14, 38.1 0, 40 0 C41.9 0, 43.81 0.14, 45.69 0.41 C47.57 0.68, 49.45 1.09, 51.27 1.62 C53.09 2.15, 54.89 2.83, 56.62 3.61 C58.34 4.4, 60.03 5.32, 61.63 6.35 C63.22 7.38, 64.76 8.53, 66.19 9.77 C67.63 11.01, 68.99 12.37, 70.23 13.81 C71.47 15.24, 72.62 16.78, 73.65 18.37 C74.68 19.97, 75.6 21.66, 76.39 23.38 C77.17 25.11, 77.85 26.91, 78.38 28.73 C78.91 30.55, 79.32 32.43, 79.59 34.31 C79.86 36.19, 79.93 39.05, 80 40 C80.07 40.95, 80.07 39.05, 80 40" stroke="#1e1e1e" stroke-width="4" fill="none"></path></g></g><g clip-path="url(#AAumdBoY2H-OEw5_vTVNg)"><g transform="translate(1352.334656599589 1279.2644745313432) rotate(0 27.061477661132812 20)"><text x="27.061477661132812" y="32.0006793478261" font-family="Helvetica, Segoe UI Emoji" font-size="34.782608695652186px" fill="#1e1e1e" text-anchor="middle" style="white-space: pre;" direction="ltr" dominant-baseline="alphabetic">Cat</text></g></g><g clip-path="url(#AAumdBoY2H-OEw5_vTVNg)"><g transform="translate(611.855650511392 908.1419051488219) rotate(270 131.1390380859375 22.994688597328604)"><text x="131.1390380859375" y="36.79228282531127" font-family="Helvetica, Segoe UI Emoji" font-size="39.990762777962786px" fill="#1e1e1e" text-anchor="middle" style="white-space: pre;" direction="ltr" dominant-baseline="alphabetic">Downsampling</text></g></g><g clip-path="url(#AAumdBoY2H-OEw5_vTVNg)"><g stroke-linecap="round" transform="translate(1659.9999999999964 1080) rotate(0 200.00000000000182 200.00000000000182)"><path d="M0 0 L400 0 L400 400 L0 400" stroke="none" stroke-width="0" fill="#ffffff"></path><path d="M0 0 C105.25 0, 210.49 0, 400 0 M0 0 C152.8 0, 305.6 0, 400 0 M400 0 C400 138.09, 400 276.19, 400 400 M400 0 C400 150.45, 400 300.9, 400 400 M400 400 C290.08 400, 180.17 400, 0 400 M400 400 C290.91 400, 181.83 400, 0 400 M0 400 C0 308.79, 0 217.58, 0 0 M0 400 C0 306.84, 0 213.68, 0 0" stroke="#1e1e1e" stroke-width="4" fill="none"></path></g></g><g clip-path="url(#AAumdBoY2H-OEw5_vTVNg)"><g stroke-linecap="round" transform="translate(1620 1120.0000000000005) rotate(0 200.00000000000182 200.00000000000188)"><path d="M0 0 L400 0 L400 400 L0 400" stroke="none" stroke-width="0" fill="#ffffff"></path><path d="M0 0 C91.52 0, 183.05 0, 400 0 M0 0 C116.34 0, 232.68 0, 400 0 M400 0 C400 84.61, 400 169.22, 400 400 M400 0 C400 128.43, 400 256.86, 400 400 M400 400 C291.15 400, 182.31 400, 0 400 M400 400 C240.77 400, 81.53 400, 0 400 M0 400 C0 298.51, 0 197.03, 0 0 M0 400 C0 271.68, 0 143.36, 0 0" stroke="#1e1e1e" stroke-width="4" fill="none"></path></g></g><g clip-path="url(#AAumdBoY2H-OEw5_vTVNg)"><g stroke-linecap="round" transform="translate(1580.0000000000036 1160.000000000001) rotate(0 200.00000000000182 200.00000000000182)"><path d="M0 0 L400 0 L400 400 L0 400" stroke="none" stroke-width="0" fill="#ffffff"></path><path d="M0 0 C108.94 0, 217.88 0, 400 0 M0 0 C95.55 0, 191.1 0, 400 0 M400 0 C400 147.03, 400 294.07, 400 400 M400 0 C400 108.82, 400 217.63, 400 400 M400 400 C303.62 400, 207.24 400, 0 400 M400 400 C266.28 400, 132.56 400, 0 400 M0 400 C0 295.26, 0 190.51, 0 0 M0 400 C0 298.8, 0 197.6, 0 0" stroke="#1e1e1e" stroke-width="4" fill="none"></path></g></g><g clip-path="url(#AAumdBoY2H-OEw5_vTVNg)"><g stroke-linecap="round" transform="translate(1540 1200.000000000001) rotate(0 200.00000000000182 200.00000000000182)"><path d="M0 0 L400 0 L400 400 L0 400" stroke="none" stroke-width="0" fill="#ffffff"></path><path d="M0 0 C121.79 0, 243.59 0, 400 0 M0 0 C116.97 0, 233.94 0, 400 0 M400 0 C400 139.55, 400 279.1, 400 400 M400 0 C400 100.14, 400 200.28, 400 400 M400 400 C277.16 400, 154.32 400, 0 400 M400 400 C303.18 400, 206.37 400, 0 400 M0 400 C0 306.31, 0 212.62, 0 0 M0 400 C0 314.45, 0 228.9, 0 0" stroke="#1e1e1e" stroke-width="4" fill="none"></path></g></g><g clip-path="url(#AAumdBoY2H-OEw5_vTVNg)"><g stroke-linecap="round" transform="translate(1500 1240) rotate(0 197.35165659328595 200)"><path d="M0 0 L394.7 0 L394.7 400 L0 400" stroke="none" stroke-width="0" fill="#ffffff"></path><path d="M0 0 C142.46 0, 284.93 0, 394.7 0 M0 0 C129.85 0, 259.69 0, 394.7 0 M394.7 0 C394.7 130.3, 394.7 260.6, 394.7 400 M394.7 0 C394.7 138.01, 394.7 276.02, 394.7 400 M394.7 400 C268.19 400, 141.68 400, 0 400 M394.7 400 C293.22 400, 191.74 400, 0 400 M0 400 C0 317.53, 0 235.05, 0 0 M0 400 C0 276.44, 0 152.88, 0 0" stroke="#1e1e1e" stroke-width="4" fill="none"></path></g></g><g clip-path="url(#AAumdBoY2H-OEw5_vTVNg)"><g transform="translate(1580 1340) rotate(0 129.99954223632812 66.40666418546596)"><text x="0" y="53.12645917894653" font-family="Helvetica, Segoe UI Emoji" font-size="57.74492537866602px" fill="#1e1e1e" text-anchor="start" style="white-space: pre;" direction="ltr" dominant-baseline="alphabetic">DataCube</text><text x="0" y="119.53312336441245" font-family="Helvetica, Segoe UI Emoji" font-size="57.74492537866602px" fill="#1e1e1e" text-anchor="start" style="white-space: pre;" direction="ltr" dominant-baseline="alphabetic">/Input</text></g></g><g clip-path="url(#AAumdBoY2H-OEw5_vTVNg)"><g stroke-linecap="round" transform="translate(2519.9999999999964 1080) rotate(0 200.00000000000182 200.00000000000182)"><path d="M0 0 L400 0 L400 400 L0 400" stroke="none" stroke-width="0" fill="#ffffff"></path><path d="M0 0 C122.84 0, 245.68 0, 400 0 M0 0 C126.7 0, 253.39 0, 400 0 M400 0 C400 111.98, 400 223.96, 400 400 M400 0 C400 121.53, 400 243.06, 400 400 M400 400 C259.67 400, 119.35 400, 0 400 M400 400 C246.23 400, 92.47 400, 0 400 M0 400 C0 269.53, 0 139.07, 0 0 M0 400 C0 288.59, 0 177.18, 0 0" stroke="#1e1e1e" stroke-width="4" fill="none"></path></g></g><g clip-path="url(#AAumdBoY2H-OEw5_vTVNg)"><g stroke-linecap="round" transform="translate(2480 1120.0000000000005) rotate(0 200.00000000000182 200.00000000000188)"><path d="M0 0 L400 0 L400 400 L0 400" stroke="none" stroke-width="0" fill="#ffffff"></path><path d="M0 0 C108.23 0, 216.47 0, 400 0 M0 0 C101.27 0, 202.54 0, 400 0 M400 0 C400 152.6, 400 305.19, 400 400 M400 0 C400 93.44, 400 186.88, 400 400 M400 400 C313.01 400, 226.02 400, 0 400 M400 400 C317.93 400, 235.86 400, 0 400 M0 400 C0 242.07, 0 84.14, 0 0 M0 400 C0 265.57, 0 131.13, 0 0" stroke="#1e1e1e" stroke-width="4" fill="none"></path></g></g><g clip-path="url(#AAumdBoY2H-OEw5_vTVNg)"><g stroke-linecap="round" transform="translate(2440.0000000000036 1160.000000000001) rotate(0 200.00000000000182 200.00000000000182)"><path d="M0 0 L400 0 L400 400 L0 400" stroke="none" stroke-width="0" fill="#ffffff"></path><path d="M0 0 C120.45 0, 240.9 0, 400 0 M0 0 C109.15 0, 218.3 0, 400 0 M400 0 C400 148.84, 400 297.68, 400 400 M400 0 C400 111.69, 400 223.38, 400 400 M400 400 C272.81 400, 145.61 400, 0 400 M400 400 C258.15 400, 116.3 400, 0 400 M0 400 C0 289.48, 0 178.95, 0 0 M0 400 C0 303.54, 0 207.08, 0 0" stroke="#1e1e1e" stroke-width="4" fill="none"></path></g></g><g clip-path="url(#AAumdBoY2H-OEw5_vTVNg)"><g stroke-linecap="round" transform="translate(2400 1200.000000000001) rotate(0 200.00000000000182 200.00000000000182)"><path d="M0 0 L400 0 L400 400 L0 400" stroke="none" stroke-width="0" fill="#ffffff"></path><path d="M0 0 C142.63 0, 285.25 0, 400 0 M0 0 C106.45 0, 212.91 0, 400 0 M400 0 C400 144.7, 400 289.4, 400 400 M400 0 C400 114.13, 400 228.26, 400 400 M400 400 C262.12 400, 124.24 400, 0 400 M400 400 C263.16 400, 126.32 400, 0 400 M0 400 C0 294.98, 0 189.96, 0 0 M0 400 C0 255.72, 0 111.44, 0 0" stroke="#1e1e1e" stroke-width="4" fill="none"></path></g></g><g clip-path="url(#AAumdBoY2H-OEw5_vTVNg)"><g transform="translate(2480 1360) rotate(0 109.9628677368164 45.50520000025733)"><text x="0" y="72.80986569334655" font-family="Helvetica, Segoe UI Emoji" font-size="79.13947826131714px" fill="#1e1e1e" text-anchor="start" style="white-space: pre;" direction="ltr" dominant-baseline="alphabetic">Fused</text></g></g><g clip-path="url(#AAumdBoY2H-OEw5_vTVNg)"><g stroke-linecap="round" transform="translate(3179.999999999998 1220) rotate(0 100 100.00000000000023)"><path d="M0 0 L200 0 L200 200 L0 200" stroke="none" stroke-width="0" fill="#ffffff"></path><path d="M0 0 C51.13 0, 102.26 0, 200 0 M0 0 C58.03 0, 116.05 0, 200 0 M200 0 C200 52.59, 200 105.18, 200 200 M200 0 C200 77.71, 200 155.42, 200 200 M200 200 C133.02 200, 66.05 200, 0 200 M200 200 C149.87 200, 99.74 200, 0 200 M0 200 C0 151.22, 0 102.44, 0 0 M0 200 C0 124.97, 0 49.93, 0 0" stroke="#1e1e1e" stroke-width="4" fill="none"></path></g></g><g clip-path="url(#AAumdBoY2H-OEw5_vTVNg)"><g stroke-linecap="round" transform="translate(3160 1240) rotate(0 100 100.00000000000023)"><path d="M0 0 L200 0 L200 200 L0 200" stroke="none" stroke-width="0" fill="#ffffff"></path><path d="M0 0 C64.71 0, 129.41 0, 200 0 M0 0 C76.51 0, 153.03 0, 200 0 M200 0 C200 46.4, 200 92.8, 200 200 M200 0 C200 66.77, 200 133.55, 200 200 M200 200 C133 200, 66 200, 0 200 M200 200 C141.63 200, 83.26 200, 0 200 M0 200 C0 143.95, 0 87.91, 0 0 M0 200 C0 139.93, 0 79.86, 0 0" stroke="#1e1e1e" stroke-width="4" fill="none"></path></g></g><g clip-path="url(#AAumdBoY2H-OEw5_vTVNg)"><g stroke-linecap="round" transform="translate(3140.000000000002 1260.0000000000002) rotate(0 100 100.00000000000023)"><path d="M0 0 L200 0 L200 200 L0 200" stroke="none" stroke-width="0" fill="#ffffff"></path><path d="M0 0 C57.19 0, 114.37 0, 200 0 M0 0 C54.19 0, 108.39 0, 200 0 M200 0 C200 41, 200 82, 200 200 M200 0 C200 46.61, 200 93.22, 200 200 M200 200 C130.21 200, 60.43 200, 0 200 M200 200 C137.69 200, 75.37 200, 0 200 M0 200 C0 153.72, 0 107.44, 0 0 M0 200 C0 149.06, 0 98.12, 0 0" stroke="#1e1e1e" stroke-width="4" fill="none"></path></g></g><g clip-path="url(#AAumdBoY2H-OEw5_vTVNg)"><g stroke-linecap="round" transform="translate(3120 1280) rotate(0 100 100.00000000000023)"><path d="M0 0 L200 0 L200 200 L0 200" stroke="none" stroke-width="0" fill="#ffffff"></path><path d="M0 0 C42.7 0, 85.4 0, 200 0 M0 0 C63.55 0, 127.09 0, 200 0 M200 0 C200 49.01, 200 98.02, 200 200 M200 0 C200 40.27, 200 80.55, 200 200 M200 200 C156.66 200, 113.33 200, 0 200 M200 200 C151.3 200, 102.61 200, 0 200 M0 200 C0 120.28, 0 40.56, 0 0 M0 200 C0 128.79, 0 57.59, 0 0" stroke="#1e1e1e" stroke-width="4" fill="none"></path></g></g><g clip-path="url(#AAumdBoY2H-OEw5_vTVNg)"><g stroke-linecap="round" transform="translate(3679.9999999999964 1100) rotate(0 200.00000000000182 200.00000000000182)"><path d="M0 0 L400 0 L400 400 L0 400" stroke="none" stroke-width="0" fill="#ffffff"></path><path d="M0 0 C137.75 0, 275.5 0, 400 0 M0 0 C120.52 0, 241.05 0, 400 0 M400 0 C400 129.83, 400 259.67, 400 400 M400 0 C400 143.06, 400 286.12, 400 400 M400 400 C319.56 400, 239.12 400, 0 400 M400 400 C262.21 400, 124.43 400, 0 400 M0 400 C0 311.68, 0 223.35, 0 0 M0 400 C0 262.22, 0 124.43, 0 0" stroke="#1e1e1e" stroke-width="4" fill="none"></path></g></g><g clip-path="url(#AAumdBoY2H-OEw5_vTVNg)"><g stroke-linecap="round" transform="translate(3640 1140.0000000000005) rotate(0 200.00000000000182 200.00000000000188)"><path d="M0 0 L400 0 L400 400 L0 400" stroke="none" stroke-width="0" fill="#ffffff"></path><path d="M0 0 C121.75 0, 243.51 0, 400 0 M0 0 C134.72 0, 269.43 0, 400 0 M400 0 C400 128.47, 400 256.95, 400 400 M400 0 C400 105.62, 400 211.24, 400 400 M400 400 C290.38 400, 180.76 400, 0 400 M400 400 C274.89 400, 149.78 400, 0 400 M0 400 C0 255.71, 0 111.42, 0 0 M0 400 C0 273.36, 0 146.73, 0 0" stroke="#1e1e1e" stroke-width="4" fill="none"></path></g></g><g clip-path="url(#AAumdBoY2H-OEw5_vTVNg)"><g stroke-linecap="round" transform="translate(3600.0000000000036 1180.000000000001) rotate(0 200.00000000000182 200.00000000000182)"><path d="M0 0 L400 0 L400 400 L0 400" stroke="none" stroke-width="0" fill="#ffffff"></path><path d="M0 0 C87.57 0, 175.13 0, 400 0 M0 0 C90.08 0, 180.16 0, 400 0 M400 0 C400 102.96, 400 205.93, 400 400 M400 0 C400 103.09, 400 206.18, 400 400 M400 400 C245.4 400, 90.81 400, 0 400 M400 400 C299.69 400, 199.39 400, 0 400 M0 400 C0 283.86, 0 167.72, 0 0 M0 400 C0 278.86, 0 157.73, 0 0" stroke="#1e1e1e" stroke-width="4" fill="none"></path></g></g><g clip-path="url(#AAumdBoY2H-OEw5_vTVNg)"><g stroke-linecap="round" transform="translate(3560 1220.000000000001) rotate(0 200.00000000000182 200.00000000000182)"><path d="M0 0 L400 0 L400 400 L0 400" stroke="none" stroke-width="0" fill="#ffffff"></path><path d="M0 0 C97.05 0, 194.1 0, 400 0 M0 0 C90.92 0, 181.84 0, 400 0 M400 0 C400 140.27, 400 280.53, 400 400 M400 0 C400 96.08, 400 192.17, 400 400 M400 400 C266.72 400, 133.43 400, 0 400 M400 400 C314.64 400, 229.27 400, 0 400 M0 400 C0 270.97, 0 141.94, 0 0 M0 400 C0 302.88, 0 205.76, 0 0" stroke="#1e1e1e" stroke-width="4" fill="none"></path></g></g><g clip-path="url(#AAumdBoY2H-OEw5_vTVNg)"><g transform="translate(3320.0034949261208 1620) rotate(0 140.95684814453125 30.700000000000045)"><text x="140.95684814453125" y="49.121042798913045" font-family="Helvetica, Segoe UI Emoji" font-size="53.39130434782609px" fill="#e03131" text-anchor="middle" style="white-space: pre;" direction="ltr" dominant-baseline="alphabetic">Upsampling</text></g></g><g clip-path="url(#AAumdBoY2H-OEw5_vTVNg)"><g transform="translate(2800.0043334960938 1620) rotate(0 175.08160400390625 30.699999999999932)"><text x="175.08160400390625" y="49.121042798912974" font-family="Helvetica, Segoe UI Emoji" font-size="53.391304347826015px" fill="#e03131" text-anchor="middle" style="white-space: pre;" direction="ltr" dominant-baseline="alphabetic">Downsampling</text></g></g><g clip-path="url(#AAumdBoY2H-OEw5_vTVNg)"><g stroke-linecap="round" transform="translate(2400 260) rotate(0 120 60)"><path d="M0 0 L240 0 L240 120 L0 120" stroke="none" stroke-width="0" fill="#ffffff"></path><path d="M0 0 C59.95 0, 119.89 0, 240 0 M0 0 C83.98 0, 167.95 0, 240 0 M240 0 C240 40.66, 240 81.32, 240 120 M240 0 C240 30.51, 240 61.01, 240 120 M240 120 C184.13 120, 128.26 120, 0 120 M240 120 C172.9 120, 105.79 120, 0 120 M0 120 C0 72.88, 0 25.76, 0 0 M0 120 C0 87.64, 0 55.28, 0 0" stroke="#1e1e1e" stroke-width="4" fill="none"></path></g></g><g clip-path="url(#AAumdBoY2H-OEw5_vTVNg)"><g transform="translate(2430.000206030876 290) rotate(0 92.68563842773438 33.07981525517775)"><text x="92.68563842773438" y="52.92882804331346" font-family="Helvetica, Segoe UI Emoji" font-size="57.530113487265666px" fill="#1e1e1e" text-anchor="middle" style="white-space: pre;" direction="ltr" dominant-baseline="alphabetic">Metrics</text></g></g></svg>